<?xml version="1.0" encoding="UTF-8" standalone="no"?>
<!-- Created with Inkscape (http://www.inkscape.org/) -->

<svg
   xmlns:dc="http://purl.org/dc/elements/1.1/"
   xmlns:cc="http://creativecommons.org/ns#"
   xmlns:rdf="http://www.w3.org/1999/02/22-rdf-syntax-ns#"
   xmlns:svg="http://www.w3.org/2000/svg"
   xmlns="http://www.w3.org/2000/svg"
   xmlns:sodipodi="http://sodipodi.sourceforge.net/DTD/sodipodi-0.dtd"
   xmlns:inkscape="http://www.inkscape.org/namespaces/inkscape"
   width="202"
   height="322"
   viewBox="0 0 53.445835 85.195836"
   version="1.1"
   id="svg8"
   inkscape:version="0.92.4 5da689c313, 2019-01-14"
   sodipodi:docname="emile-splash.svg"
   inkscape:export-filename="/data/devel/emile2-gitlab/emile-client/android/res/drawable-ldpi/splash.png"
   inkscape:export-xdpi="96"
   inkscape:export-ydpi="96">
  <defs
     id="defs2">
    <linearGradient
       id="id0"
       gradientUnits="userSpaceOnUse"
       x1="228.908"
       y1="95.584999"
       x2="228.908"
       y2="185.224">
      <stop
         offset="0"
         style="stop-color:#3A7CCB"
         id="stop4156" />
      <stop
         offset="0.85098"
         style="stop-color:#336DB2"
         id="stop4158" />
      <stop
         offset="1"
         style="stop-color:#2C5D98"
         id="stop4160" />
    </linearGradient>
    <linearGradient
       id="id1"
       gradientUnits="userSpaceOnUse"
       x1="158.80299"
       y1="32.5331"
       x2="158.80299"
       y2="122.172">
      <stop
         offset="0"
         style="stop-color:#FF8F1C"
         id="stop4163" />
      <stop
         offset="0.85098"
         style="stop-color:#E57E18"
         id="stop4165" />
      <stop
         offset="1"
         style="stop-color:#CB6C13"
         id="stop4167" />
    </linearGradient>
  </defs>
  <sodipodi:namedview
     id="base"
     pagecolor="#ffffff"
     bordercolor="#666666"
     borderopacity="1.0"
     inkscape:pageopacity="0"
     inkscape:pageshadow="2"
     inkscape:zoom="1.4142136"
     inkscape:cx="206.49451"
     inkscape:cy="197.94454"
     inkscape:document-units="mm"
     inkscape:current-layer="layer1"
     showgrid="false"
     inkscape:window-width="1440"
     inkscape:window-height="835"
     inkscape:window-x="0"
     inkscape:window-y="0"
     inkscape:window-maximized="1"
     units="px" />
  <metadata
     id="metadata5">
    <rdf:RDF>
      <cc:Work
         rdf:about="">
        <dc:format>image/svg+xml</dc:format>
        <dc:type
           rdf:resource="http://purl.org/dc/dcmitype/StillImage" />
        <dc:title></dc:title>
      </cc:Work>
    </rdf:RDF>
  </metadata>
  <g
     inkscape:label="Layer 1"
     inkscape:groupmode="layer"
     id="layer1"
     transform="translate(0,-211.80414)">
    <rect
       style="fill:#1b1b1b;fill-opacity:1;stroke:none;stroke-width:0.11530639;stroke-miterlimit:4;stroke-dasharray:none;stroke-opacity:1"
       id="rect818"
       width="53.445835"
       height="85.195831"
       x="1.0172525e-06"
       y="211.80414"
       inkscape:export-filename="/data/devel/emile2-gitlab/emile-client/android/res/drawable-xxxhdpi/splash.png"
       inkscape:export-xdpi="96"
       inkscape:export-ydpi="96" />
    <g
       id="g192"
       transform="matrix(0.15756632,0,0,0.15756632,-2.9814702e-6,248.76454)">
      <g
         transform="matrix(3.0392527,0,0,3.2365336,-136.23627,-479.50559)"
         id="g4589">
        <path
           inkscape:connector-curvature="0"
           id="path29"
           d="m 79.805446,148.42734 c -3.357756,-1.77278 -2.168716,-6.91871 1.68665,-7.29946 3.10932,-0.30708 5.335032,3.41814 3.59683,6.02008 -1.16583,1.74514 -3.38395,2.28226 -5.28348,1.27938 z m 6.090561,-7.37959 c -2.484211,-2.58177 -3.885041,-2.54165 -8.901807,0.25493 -4.05383,2.2598 -9.00618,-0.58835 -9.02596,-5.19093 -0.004,-1.01101 0.20823,-1.76692 0.84304,-2.99778 0.8942,-1.73383 1.67756,-2.46216 2.98761,-2.77776 2.62073,-0.63135 4.06135,-0.40105 6.127036,0.97947 0.99052,0.66198 1.37386,1.1265 1.68921,2.04693 0.92311,2.6944 2.44493,4.52583 4.19691,5.05073 0.98157,0.29409 1.39269,0.27888 2.899661,-0.1073 2.337715,-0.59905 2.593093,-0.5751 3.496071,0.32788 1.605593,1.60559 0.574387,3.96379 -1.740143,3.97942 -0.9501,0.006 -1.213093,-0.1537 -2.571628,-1.56559 z m 20.022103,-0.92625 c -0.9171,-0.9171 -0.90574,-2.57788 0.0235,-3.43909 0.58855,-0.54544 0.98502,-0.63513 3.16076,-0.71497 2.43227,-0.0893 2.50931,-0.11197 3.45067,-1.01734 1.26495,-1.21659 1.67391,-2.04529 2.09189,-4.23891 0.51294,-2.69199 1.4595,-4.13448 3.22555,-4.91552 1.59251,-0.70428 3.83498,-0.82294 5.32691,-0.28187 2.07487,0.75248 3.77451,3.39389 3.76129,5.84542 -0.0163,3.02168 -3.08209,5.97213 -6.20559,5.97213 -0.45402,0 -1.83179,-0.35483 -3.06173,-0.78853 -2.61176,-0.92094 -3.67072,-0.9769 -5.21575,-0.27561 -0.80781,0.36667 -1.33287,0.86442 -1.85208,1.75575 -1.17642,2.01954 -1.99754,2.74798 -3.09759,2.74798 -0.66481,0 -1.15738,-0.19896 -1.60785,-0.64944 z m -22.345264,-4.01231 c -1.10539,-0.6924 -1.6777,-1.69559 -1.78278,-3.12501 -0.18201,-2.47581 1.33064,-4.11815 3.793817,-4.11908 1.943481,-7.9e-4 2.739708,0.4516 3.439152,1.95375 0.965785,2.07416 0.858359,3.02444 -0.507746,4.49139 -1.113996,1.19626 -1.182743,1.22719 -2.711979,1.22032 -0.954924,-0.004 -1.827894,-0.16919 -2.230464,-0.42137 z m 8.64031,0.12876 c -0.754412,-0.43853 -1.263393,-1.92425 -1.071126,-3.12662 0.512278,-3.20361 -1.214239,-5.04853 -5.633212,-6.01953 -1.780132,-0.39115 -2.208212,-0.60209 -3.166302,-1.56018 -1.62739,-1.62739 -2.05928,-2.59355 -2.05826,-4.60443 0.002,-4.74685 4.5922,-7.52128 8.863541,-5.35781 2.06734,1.04713 2.988667,2.51614 3.11137,4.96094 0.06966,1.38789 -0.03769,2.18364 -0.42831,3.175 -0.286695,0.7276 -0.60565,2.05672 -0.708784,2.95359 -0.261173,2.27114 0.213698,3.18042 2.40738,4.60966 1.956289,1.27457 2.478807,1.9 2.478807,2.96701 0,1.08702 -1.287981,2.30439 -2.427044,2.29399 -0.484135,-0.004 -1.099762,-0.13565 -1.36806,-0.29162 z m 7.962284,-0.77988 c -0.679046,-0.39551 -1.322959,-1.7957 -1.147422,-2.49509 0.08382,-0.33397 0.702829,-1.17357 1.375572,-1.86577 1.4936,-1.5368 1.95614,-2.58216 1.94988,-4.40683 -0.004,-1.07276 -0.19699,-1.73576 -0.83178,-2.85277 -1.746147,-3.07263 -1.809263,-3.2457 -1.809263,-4.96128 0,-2.03415 0.591933,-3.32952 2.118613,-4.6363 3.51924,-3.01234 8.97606,-1.0998 9.8261,3.44391 0.5796,3.0981 -0.87874,5.60082 -4.12829,7.0847 -1.27063,0.58023 -2.26305,1.27922 -3.12007,2.19754 -1.17891,1.26324 -1.25677,1.43547 -1.25677,2.77995 0,0.78831 0.17285,1.9232 0.38412,2.52199 0.29197,0.82752 0.31682,1.28176 0.10361,1.89339 -0.44674,1.28151 -2.29958,1.97496 -3.4643,1.29656 z m 6.4399,-1.8087 c -0.87159,-0.81419 -1.61125,-2.28201 -1.61125,-3.19748 0,-0.8668 1.22287,-3.04828 1.99084,-3.55148 0.85386,-0.55947 2.62315,-0.65851 3.69771,-0.20699 1.779,0.74752 2.76541,3.78109 1.854,5.70174 -0.64318,1.35539 -1.8488,2.02578 -3.64319,2.02578 -1.25005,0 -1.58196,-0.11192 -2.28811,-0.77157 z m -11.822428,-3.34848 c -0.450162,-0.22211 -1.087517,-0.88253 -1.416343,-1.4676 -0.490633,-0.87297 -0.565082,-1.28588 -0.415071,-2.30212 0.238318,-1.61446 0.98524,-2.79847 2.098731,-3.32685 3.468404,-1.64587 6.957501,1.91428 5.217901,5.32417 -0.821526,1.61033 -1.700803,2.18944 -3.313364,2.18226 -0.74436,-0.003 -1.721694,-0.18775 -2.171854,-0.40986 z M 71.88653,125.98283 c -1.75189,-1.11102 -2.18107,-2.52362 -1.37717,-4.53278 0.31518,-0.78769 0.71691,-1.22158 1.50182,-1.62201 2.89894,-1.47893 6.031606,0.96455 5.19931,4.05546 -0.31426,1.16708 -0.74308,1.64091 -2.12137,2.34406 -1.35602,0.69179 -1.77651,0.65966 -3.20259,-0.24473 z m 45.81757,-3.92363 c -1.01378,-0.38093 -1.84924,-1.23915 -2.2643,-2.32598 -0.42934,-1.1242 -0.42881,-1.25172 0.01,-2.4003 0.59493,-1.5578 1.64027,-2.22424 3.49094,-2.22557 1.63368,-10e-4 2.7829,0.79795 3.26999,2.27387 0.91901,2.78462 -1.86213,5.67161 -4.50646,4.67798 z m -23.680215,-7.20671 c -1.068832,-0.44501 -2.039919,-1.7789 -2.176367,-2.98947 -0.21462,-1.9041 0.882809,-3.48932 2.699218,-3.89899 1.350912,-0.30468 2.603693,0.11974 3.556423,1.20484 1.501214,1.70978 0.931625,4.52613 -1.111461,5.49564 -0.997482,0.47334 -2.11278,0.54398 -2.967813,0.18798 z"
           style="fill:#009688;fill-opacity:1;stroke-width:0.26458335"
           sodipodi:nodetypes="ccccccccsccccccccccsscscscccscccccccccscscccccsscccccccsscccsscccscscsccsscsccccccscacccccacscccc" />
        <text
           xml:space="preserve"
           style="font-style:normal;font-weight:normal;font-size:18.34874153px;line-height:1.25;font-family:sans-serif;letter-spacing:0px;word-spacing:0px;fill:#ffffff;fill-opacity:1;stroke:none;stroke-width:0.45871851"
           x="94.076782"
           y="155.04565"
           id="text4557"><tspan
             sodipodi:role="line"
             id="tspan4555"
             x="94.076782"
             y="155.04565"
             style="font-style:normal;font-variant:normal;font-weight:normal;font-stretch:normal;font-size:18.34874153px;font-family:'Dream Orphanage';-inkscape-font-specification:'Dream Orphanage, Normal';font-variant-ligatures:normal;font-variant-caps:normal;font-variant-numeric:normal;font-feature-settings:normal;text-align:start;writing-mode:lr-tb;text-anchor:start;fill:#ffffff;stroke-width:0.45871851">Emile</tspan></text>
      </g>
      <g
         id="g169">
        <text
           xml:space="preserve"
           style="font-style:normal;font-weight:normal;font-size:6.50503063px;line-height:1.25;font-family:sans-serif;letter-spacing:0px;word-spacing:0px;fill:#ffffff;fill-opacity:1;stroke:none;stroke-width:0.16262577"
           x="168.28163"
           y="117.55719"
           id="text830"
           transform="scale(0.96904362,1.0319453)"><tspan
             sodipodi:role="line"
             id="tspan828"
             x="168.28163"
             y="117.55719"
             style="font-style:normal;font-variant:normal;font-weight:normal;font-stretch:normal;font-size:12.8514204px;font-family:'Titillium Web';-inkscape-font-specification:'Titillium Web, Normal';font-variant-ligatures:normal;font-variant-caps:normal;font-variant-numeric:normal;font-feature-settings:normal;text-align:start;writing-mode:lr-tb;text-anchor:start;fill:#ffffff;stroke-width:0.16262577">by</tspan></text>
        <g
           id="g68"
           transform="matrix(4.1168447,0,0,4.1168447,118.26875,-932.67815)">
          <text
             id="text830-3"
             y="267.07327"
             x="8.4135256"
             style="font-style:normal;font-variant:normal;font-weight:normal;font-stretch:normal;font-size:2.43257022px;line-height:1.25;font-family:Abel;-inkscape-font-specification:'Abel, Normal';font-variant-ligatures:normal;font-variant-caps:normal;font-variant-numeric:normal;font-feature-settings:normal;text-align:start;letter-spacing:0px;word-spacing:0px;writing-mode:lr-tb;text-anchor:start;fill:#ffffff;fill-opacity:1;stroke:none;stroke-width:0.06081644"
             xml:space="preserve"
             transform="scale(0.96904362,1.0319453)"><tspan
               style="font-style:normal;font-variant:normal;font-weight:normal;font-stretch:normal;font-size:2.43259048px;font-family:Days;-inkscape-font-specification:'Days, Normal';font-variant-ligatures:normal;font-variant-caps:normal;font-variant-numeric:normal;font-feature-settings:normal;text-align:start;writing-mode:lr-tb;text-anchor:start;fill:#cacaca;fill-opacity:1;stroke-width:0.06081644"
               y="267.07327"
               x="8.4135256"
               id="tspan828-6"
               sodipodi:role="line">BAHIA</tspan></text>
          <g
             id="g47"
             transform="matrix(0.02151525,0,0,0.02151525,8.3180833,249.72234)">
            <rect
               style="fill:#71c837;fill-rule:evenodd;stroke:none"
               id="rect2816-4-4-5-1-7"
               width="124"
               height="124"
               x="131.16647"
               y="538.33813"
               ry="28.10984"
               rx="24.596111" />
            <rect
               style="fill:#71c837;fill-rule:evenodd"
               id="rect2816-4-4-5-1-7-4"
               width="124"
               height="124"
               x="131.16647"
               y="668.34613"
               ry="28.10984"
               rx="24.596111" />
            <rect
               style="fill:#71c837;fill-rule:evenodd"
               id="rect2816-4-4-5-1-7-3"
               width="124"
               height="124"
               x="131.16647"
               y="798.35419"
               ry="28.10984"
               rx="24.596111" />
            <rect
               style="fill:#71c837;fill-rule:evenodd"
               id="rect2816-4-4-5-1-7-1"
               width="124"
               height="124"
               x="131.16647"
               y="928.36218"
               ry="28.10984"
               rx="24.596111" />
            <rect
               style="fill:#71c837;fill-rule:evenodd;stroke:none"
               id="rect2816-4-4-5-1-7-8"
               width="124"
               height="124"
               x="261.77289"
               y="538.33813"
               ry="28.10984"
               rx="24.596111" />
            <rect
               style="fill:#71c837;fill-rule:evenodd"
               id="rect2816-4-4-5-1-7-4-9"
               width="124"
               height="124"
               x="0"
               y="668.34613"
               ry="28.10984"
               rx="24.596111" />
            <rect
               style="fill:#71c837;fill-rule:evenodd"
               id="rect2816-4-4-5-1-7-3-2"
               width="124"
               height="124"
               x="0"
               y="798.35419"
               ry="28.10984"
               rx="24.596111" />
            <rect
               style="fill:#71c837;fill-rule:evenodd"
               id="rect2816-4-4-5-1-7-1-7"
               width="124"
               height="124"
               x="0"
               y="928.36218"
               ry="28.10984"
               rx="24.596111" />
            <rect
               style="fill:#71c837;fill-rule:evenodd"
               id="rect2816-4-4-5-1-7-8-2"
               width="124"
               height="124"
               x="261.77289"
               y="796.59729"
               ry="28.10984"
               rx="24.596111" />
            <ellipse
               style="fill:#d40000"
               id="path3184"
               transform="translate(-90.847257,349.10644)"
               cx="151.09039"
               cy="246.83954"
               rx="59.733414"
               ry="60.611847" />
          </g>
        </g>
      </g>
    </g>
  </g>
</svg>
