<?xml version="1.0" encoding="UTF-8" standalone="no"?>
<!-- Created with Inkscape (http://www.inkscape.org/) -->

<svg
   xmlns:dc="http://purl.org/dc/elements/1.1/"
   xmlns:cc="http://creativecommons.org/ns#"
   xmlns:rdf="http://www.w3.org/1999/02/22-rdf-syntax-ns#"
   xmlns:svg="http://www.w3.org/2000/svg"
   xmlns="http://www.w3.org/2000/svg"
   xmlns:sodipodi="http://sodipodi.sourceforge.net/DTD/sodipodi-0.dtd"
   xmlns:inkscape="http://www.inkscape.org/namespaces/inkscape"
   width="480"
   height="480"
   viewBox="0 0 127 127"
   version="1.1"
   id="svg8"
   inkscape:version="0.92.4 5da689c313, 2019-01-14"
   sodipodi:docname="emile-logo.svg"
   inkscape:export-filename="/data/devel/emile2-gitlab/emile-client/android/res/drawable-ldpi/emile.png"
   inkscape:export-xdpi="14.4"
   inkscape:export-ydpi="14.4">
  <defs
     id="defs2" />
  <sodipodi:namedview
     id="base"
     pagecolor="#ffffff"
     bordercolor="#666666"
     borderopacity="1.0"
     inkscape:pageopacity="0"
     inkscape:pageshadow="2"
     inkscape:zoom="0.7"
     inkscape:cx="-35.240552"
     inkscape:cy="278.67906"
     inkscape:document-units="mm"
     inkscape:current-layer="layer1"
     showgrid="false"
     inkscape:window-width="1366"
     inkscape:window-height="703"
     inkscape:window-x="0"
     inkscape:window-y="0"
     inkscape:window-maximized="1"
     units="px"
     inkscape:snap-bbox="true" />
  <metadata
     id="metadata5">
    <rdf:RDF>
      <cc:Work
         rdf:about="">
        <dc:format>image/svg+xml</dc:format>
        <dc:type
           rdf:resource="http://purl.org/dc/dcmitype/StillImage" />
        <dc:title></dc:title>
      </cc:Work>
    </rdf:RDF>
  </metadata>
  <g
     inkscape:label="Layer 1"
     inkscape:groupmode="layer"
     id="layer1"
     transform="translate(0,-169.99998)">
    <g
       id="g4589"
       transform="matrix(1.427161,0,0,1.427161,-210.89224,-11.745697)">
      <path
         sodipodi:nodetypes="ccccccccsccccccccccsscscscccscccccccccscscccccsscccccccsscccsscccscscsccsscsccccccscacccccacscccc"
         style="fill:#03728c;fill-opacity:1;stroke-width:0.26458335"
         d="m 79.805446,148.42734 c -3.357756,-1.77278 -2.168716,-6.91871 1.68665,-7.29946 3.10932,-0.30708 5.335032,3.41814 3.59683,6.02008 -1.16583,1.74514 -3.38395,2.28226 -5.28348,1.27938 z m 6.090561,-7.37959 c -2.484211,-2.58177 -3.885041,-2.54165 -8.901807,0.25493 -4.05383,2.2598 -9.00618,-0.58835 -9.02596,-5.19093 -0.004,-1.01101 0.20823,-1.76692 0.84304,-2.99778 0.8942,-1.73383 1.67756,-2.46216 2.98761,-2.77776 2.62073,-0.63135 4.06135,-0.40105 6.127036,0.97947 0.99052,0.66198 1.37386,1.1265 1.68921,2.04693 0.92311,2.6944 2.44493,4.52583 4.19691,5.05073 0.98157,0.29409 1.39269,0.27888 2.899661,-0.1073 2.337715,-0.59905 2.593093,-0.5751 3.496071,0.32788 1.605593,1.60559 0.574387,3.96379 -1.740143,3.97942 -0.9501,0.006 -1.213093,-0.1537 -2.571628,-1.56559 z m 20.022103,-0.92625 c -0.9171,-0.9171 -0.90574,-2.57788 0.0235,-3.43909 0.58855,-0.54544 0.98502,-0.63513 3.16076,-0.71497 2.43227,-0.0893 2.50931,-0.11197 3.45067,-1.01734 1.26495,-1.21659 1.67391,-2.04529 2.09189,-4.23891 0.51294,-2.69199 1.4595,-4.13448 3.22555,-4.91552 1.59251,-0.70428 3.83498,-0.82294 5.32691,-0.28187 2.07487,0.75248 3.77451,3.39389 3.76129,5.84542 -0.0163,3.02168 -3.08209,5.97213 -6.20559,5.97213 -0.45402,0 -1.83179,-0.35483 -3.06173,-0.78853 -2.61176,-0.92094 -3.67072,-0.9769 -5.21575,-0.27561 -0.80781,0.36667 -1.33287,0.86442 -1.85208,1.75575 -1.17642,2.01954 -1.99754,2.74798 -3.09759,2.74798 -0.66481,0 -1.15738,-0.19896 -1.60785,-0.64944 z m -22.345264,-4.01231 c -1.10539,-0.6924 -1.6777,-1.69559 -1.78278,-3.12501 -0.18201,-2.47581 1.33064,-4.11815 3.793817,-4.11908 1.943481,-7.9e-4 2.739708,0.4516 3.439152,1.95375 0.965785,2.07416 0.858359,3.02444 -0.507746,4.49139 -1.113996,1.19626 -1.182743,1.22719 -2.711979,1.22032 -0.954924,-0.004 -1.827894,-0.16919 -2.230464,-0.42137 z m 8.64031,0.12876 c -0.754412,-0.43853 -1.263393,-1.92425 -1.071126,-3.12662 0.512278,-3.20361 -1.214239,-5.04853 -5.633212,-6.01953 -1.780132,-0.39115 -2.208212,-0.60209 -3.166302,-1.56018 -1.62739,-1.62739 -2.05928,-2.59355 -2.05826,-4.60443 0.002,-4.74685 4.5922,-7.52128 8.863541,-5.35781 2.06734,1.04713 2.988667,2.51614 3.11137,4.96094 0.06966,1.38789 -0.03769,2.18364 -0.42831,3.175 -0.286695,0.7276 -0.60565,2.05672 -0.708784,2.95359 -0.261173,2.27114 0.213698,3.18042 2.40738,4.60966 1.956289,1.27457 2.478807,1.9 2.478807,2.96701 0,1.08702 -1.287981,2.30439 -2.427044,2.29399 -0.484135,-0.004 -1.099762,-0.13565 -1.36806,-0.29162 z m 7.962284,-0.77988 c -0.679046,-0.39551 -1.322959,-1.7957 -1.147422,-2.49509 0.08382,-0.33397 0.702829,-1.17357 1.375572,-1.86577 1.4936,-1.5368 1.95614,-2.58216 1.94988,-4.40683 -0.004,-1.07276 -0.19699,-1.73576 -0.83178,-2.85277 -1.746147,-3.07263 -1.809263,-3.2457 -1.809263,-4.96128 0,-2.03415 0.591933,-3.32952 2.118613,-4.6363 3.51924,-3.01234 8.97606,-1.0998 9.8261,3.44391 0.5796,3.0981 -0.87874,5.60082 -4.12829,7.0847 -1.27063,0.58023 -2.26305,1.27922 -3.12007,2.19754 -1.17891,1.26324 -1.25677,1.43547 -1.25677,2.77995 0,0.78831 0.17285,1.9232 0.38412,2.52199 0.29197,0.82752 0.31682,1.28176 0.10361,1.89339 -0.44674,1.28151 -2.29958,1.97496 -3.4643,1.29656 z m 6.4399,-1.8087 c -0.87159,-0.81419 -1.61125,-2.28201 -1.61125,-3.19748 0,-0.8668 1.22287,-3.04828 1.99084,-3.55148 0.85386,-0.55947 2.62315,-0.65851 3.69771,-0.20699 1.779,0.74752 2.76541,3.78109 1.854,5.70174 -0.64318,1.35539 -1.8488,2.02578 -3.64319,2.02578 -1.25005,0 -1.58196,-0.11192 -2.28811,-0.77157 z m -11.822428,-3.34848 c -0.450162,-0.22211 -1.087517,-0.88253 -1.416343,-1.4676 -0.490633,-0.87297 -0.565082,-1.28588 -0.415071,-2.30212 0.238318,-1.61446 0.98524,-2.79847 2.098731,-3.32685 3.468404,-1.64587 6.957501,1.91428 5.217901,5.32417 -0.821526,1.61033 -1.700803,2.18944 -3.313364,2.18226 -0.74436,-0.003 -1.721694,-0.18775 -2.171854,-0.40986 z M 71.88653,125.98283 c -1.75189,-1.11102 -2.18107,-2.52362 -1.37717,-4.53278 0.31518,-0.78769 0.71691,-1.22158 1.50182,-1.62201 2.89894,-1.47893 6.031606,0.96455 5.19931,4.05546 -0.31426,1.16708 -0.74308,1.64091 -2.12137,2.34406 -1.35602,0.69179 -1.77651,0.65966 -3.20259,-0.24473 z m 45.81757,-3.92363 c -1.01378,-0.38093 -1.84924,-1.23915 -2.2643,-2.32598 -0.42934,-1.1242 -0.42881,-1.25172 0.01,-2.4003 0.59493,-1.5578 1.64027,-2.22424 3.49094,-2.22557 1.63368,-10e-4 2.7829,0.79795 3.26999,2.27387 0.91901,2.78462 -1.86213,5.67161 -4.50646,4.67798 z m -23.680215,-7.20671 c -1.068832,-0.44501 -2.039919,-1.7789 -2.176367,-2.98947 -0.21462,-1.9041 0.882809,-3.48932 2.699218,-3.89899 1.350912,-0.30468 2.603693,0.11974 3.556423,1.20484 1.501214,1.70978 0.931625,4.52613 -1.111461,5.49564 -0.997482,0.47334 -2.11278,0.54398 -2.967813,0.18798 z"
         id="path29"
         inkscape:connector-curvature="0" />
      <text
         id="text4557"
         y="155.04565"
         x="94.076782"
         style="font-style:normal;font-weight:normal;font-size:18.34874153px;line-height:1.25;font-family:sans-serif;letter-spacing:0px;word-spacing:0px;fill:#414141;fill-opacity:1;stroke:none;stroke-width:0.45871851;"
         xml:space="preserve"><tspan
           style="font-style:normal;font-variant:normal;font-weight:normal;font-stretch:normal;font-size:18.34874153px;font-family:'Dream Orphanage';-inkscape-font-specification:'Dream Orphanage, Normal';font-variant-ligatures:normal;font-variant-caps:normal;font-variant-numeric:normal;font-feature-settings:normal;text-align:start;writing-mode:lr-tb;text-anchor:start;fill:#414141;stroke-width:0.45871851;fill-opacity:1;"
           y="155.04565"
           x="94.076782"
           id="tspan4555"
           sodipodi:role="line">Emile</tspan></text>
    </g>
    <g
       id="g1419"
       inkscape:export-filename="/data/devel/emile2-gitlab/emile-client/android/res/drawable-ldpi/emile.png"
       inkscape:export-xdpi="14.45"
       inkscape:export-ydpi="14.45">
      <g
         id="g1414">
        <rect
           style="opacity:1;fill:#f2f2f2;fill-opacity:1;stroke:none;stroke-width:0.43119714;stroke-miterlimit:4;stroke-dasharray:none;stroke-opacity:1"
           id="rect828"
           width="126.5688"
           height="126.5688"
           x="0.21559906"
           y="170.21558"
           ry="20.050501" />
      </g>
      <path
         sodipodi:nodetypes="ccccccccsccccccccccsscscscccscccccccccscscccccsscccccccsscccsscccscscsccsscsccccccscacccccacscccc"
         style="fill:#03728c;fill-opacity:1;stroke-width:0.41570932"
         d="m 35.755983,264.96884 c -5.275654,-2.78536 -3.407452,-10.87058 2.65004,-11.46879 4.885317,-0.48249 8.382322,5.37053 5.651285,9.45864 -1.831735,2.74195 -5.316811,3.58587 -8.301325,2.01015 z m 9.569398,-11.59469 c -3.903155,-4.05644 -6.104117,-3.9934 -13.986383,0.40054 -6.369317,3.55057 -14.150373,-0.92441 -14.181452,-8.1559 -0.0063,-1.5885 0.327167,-2.77617 1.324572,-4.71009 1.404954,-2.72415 2.635756,-3.8685 4.694087,-4.36436 4.117652,-0.99197 6.381131,-0.63012 9.626706,1.53894 1.556291,1.04007 2.158589,1.76993 2.65406,3.2161 1.450377,4.23338 3.841439,7.11091 6.594122,7.93562 1.542229,0.46208 2.188174,0.43817 4.555903,-0.16858 3.672984,-0.94123 4.07423,-0.90359 5.492976,0.51515 2.522682,2.52268 0.902466,6.22785 -2.734089,6.25241 -1.492781,0.009 -1.905992,-0.24149 -4.040502,-2.45983 z m 31.458425,-1.45532 c -1.440935,-1.44094 -1.423086,-4.05032 0.03692,-5.40344 0.92472,-0.85698 1.547648,-0.9979 4.966137,-1.12335 3.821545,-0.1403 3.942589,-0.17592 5.42164,-1.59844 1.98747,-1.91148 2.630022,-3.2135 3.286746,-6.6601 0.805924,-4.22962 2.293148,-6.49603 5.067932,-7.72318 2.50213,-1.10656 6.025459,-1.293 8.369569,-0.44288 3.26001,1.18228 5.93045,5.33243 5.90967,9.18424 -0.0256,4.74761 -4.84253,9.38332 -9.75013,9.38332 -0.713349,0 -2.878079,-0.5575 -4.810539,-1.23893 -4.103554,-1.44697 -5.767377,-1.53489 -8.194904,-0.43304 -1.26922,0.57612 -2.094185,1.35817 -2.909959,2.75861 -1.848374,3.17307 -3.138505,4.31759 -4.866888,4.31759 -1.044539,0 -1.818457,-0.3126 -2.526229,-1.0204 z m -35.10854,-6.30407 c -1.736771,-1.08789 -2.635977,-2.6641 -2.801076,-4.90997 -0.285971,-3.88995 2.090681,-6.47037 5.960787,-6.47183 3.053567,-8.9e-4 4.304587,0.70954 5.403544,3.0697 1.517425,3.25889 1.348641,4.75195 -0.797764,7.0568 -1.750293,1.87956 -1.858308,1.92814 -4.26102,1.91735 -1.500362,-0.007 -2.871958,-0.26583 -3.504471,-0.66205 z m 13.575525,0.2023 c -1.185321,-0.68901 -1.985024,-3.02335 -1.682937,-4.9125 0.804881,-5.03346 -1.907795,-7.93218 -8.850818,-9.4578 -2.796917,-0.61456 -3.469509,-0.94598 -4.974847,-2.45132 -2.55693,-2.55692 -3.235508,-4.07495 -3.233906,-7.23441 0.0032,-7.45819 7.215195,-11.81733 13.926261,-8.41811 3.248174,1.64523 4.695749,3.95331 4.888539,7.79456 0.109453,2.18063 -0.05923,3.4309 -0.672956,4.9885 -0.450451,1.1432 -0.951587,3.23148 -1.113631,4.64065 -0.410349,3.56837 0.335761,4.99702 3.782439,7.24262 3.073692,2.00258 3.894665,2.98523 3.894665,4.66172 0,1.70791 -2.023656,3.62062 -3.813335,3.60427 -0.760666,-0.007 -1.72793,-0.21312 -2.149474,-0.45818 z m 12.510219,-1.22533 c -1.066907,-0.62142 -2.078613,-2.82137 -1.802813,-3.92026 0.131698,-0.52472 1.104274,-1.84388 2.161278,-2.93146 2.346723,-2.41459 3.073458,-4.05705 3.063622,-6.92395 -0.0063,-1.68551 -0.309508,-2.7272 -1.306879,-4.48222 -2.743519,-4.82767 -2.842687,-5.0996 -2.842687,-7.79509 0,-3.19603 0.930035,-5.23131 3.328732,-7.28448 5.529377,-4.73295 14.10305,-1.72799 15.438619,5.41101 0.910658,4.86769 -1.380663,8.79993 -6.486306,11.13137 -1.996395,0.91166 -3.555671,2.0099 -4.902206,3.45274 -1.852286,1.98479 -1.974618,2.25539 -1.974618,4.36782 0,1.23859 0.271579,3.02171 0.603523,3.96252 0.458739,1.30018 0.497782,2.01387 0.16279,2.97487 -0.701912,2.01348 -3.613066,3.103 -5.443055,2.03713 z m 10.118273,-2.84181 c -1.369428,-1.27924 -2.531572,-3.58545 -2.531572,-5.02383 0,-1.3619 1.921354,-4.7894 3.127976,-5.58004 1.341573,-0.87902 4.121456,-1.03464 5.809787,-0.32521 2.795139,1.17449 4.344971,5.94079 2.912976,8.95848 -1.010553,2.12958 -2.904806,3.18288 -5.724124,3.18288 -1.96406,0 -2.485551,-0.17584 -3.595043,-1.21228 z m -18.57522,-5.26109 c -0.707288,-0.34895 -1.708689,-1.38659 -2.225336,-2.30586 -0.770876,-1.3716 -0.887848,-2.02035 -0.652154,-3.61706 0.374442,-2.53661 1.547994,-4.3969 3.297494,-5.22709 5.449504,-2.58597 10.931521,3.0077 8.198286,8.36525 -1.290768,2.53012 -2.672274,3.44002 -5.205906,3.42874 -1.169526,-0.005 -2.705099,-0.29499 -3.412384,-0.64398 z m -35.990159,-6.78446 c -2.752544,-1.7456 -3.426865,-3.96507 -2.163788,-7.12183 0.495205,-1.23761 1.126398,-1.91932 2.359637,-2.54848 4.554769,-2.32367 9.476767,1.5155 8.169076,6.37187 -0.49376,1.8337 -1.167517,2.57818 -3.333064,3.68295 -2.130558,1.08693 -2.791226,1.03646 -5.031861,-0.38451 z m 71.987877,-6.16476 c -1.592841,-0.59849 -2.905505,-1.94692 -3.557641,-3.65453 -0.674572,-1.76633 -0.67374,-1.96668 0.01572,-3.77132 0.934738,-2.44759 2.577161,-3.49469 5.484921,-3.49678 2.5668,-8.7e-4 4.372439,1.25373 5.137759,3.57267 1.44393,4.37516 -2.925759,8.91116 -7.080489,7.34996 z M 58.09578,212.21656 c -1.679333,-0.69919 -3.20509,-2.795 -3.419474,-4.69703 -0.33721,-2.99168 1.387054,-5.48236 4.24097,-6.12602 2.122531,-0.47871 4.090881,0.18813 5.587797,1.89302 2.358685,2.68639 1.463754,7.11139 -1.74631,8.63467 -1.56723,0.7437 -3.319569,0.8547 -4.662983,0.29536 z"
         id="path29-6"
         inkscape:connector-curvature="0" />
    </g>
  </g>
</svg>
