<?xml version="1.0" encoding="UTF-8" standalone="no"?>
<!-- Created with Inkscape (http://www.inkscape.org/) -->

<svg
   xmlns:dc="http://purl.org/dc/elements/1.1/"
   xmlns:cc="http://creativecommons.org/ns#"
   xmlns:rdf="http://www.w3.org/1999/02/22-rdf-syntax-ns#"
   xmlns:svg="http://www.w3.org/2000/svg"
   xmlns="http://www.w3.org/2000/svg"
   xmlns:xlink="http://www.w3.org/1999/xlink"
   xmlns:sodipodi="http://sodipodi.sourceforge.net/DTD/sodipodi-0.dtd"
   xmlns:inkscape="http://www.inkscape.org/namespaces/inkscape"
   width="512"
   height="512"
   viewBox="0 0 135.46666 135.46667"
   version="1.1"
   id="svg857"
   inkscape:version="0.92.4 5da689c313, 2019-01-14"
   sodipodi:docname="gsort-logo.svg">
  <defs
     id="defs851">
    <linearGradient
       inkscape:collect="always"
       xlink:href="#id0"
       id="linearGradient1238"
       gradientUnits="userSpaceOnUse"
       x1="228.908"
       y1="95.584999"
       x2="228.908"
       y2="185.224" />
    <linearGradient
       id="id0"
       gradientUnits="userSpaceOnUse"
       x1="228.908"
       y1="95.584999"
       x2="228.908"
       y2="185.224">
      <stop
         offset="0"
         style="stop-color:#3A7CCB"
         id="stop4156" />
      <stop
         offset="0.85098"
         style="stop-color:#336DB2"
         id="stop4158" />
      <stop
         offset="1"
         style="stop-color:#2C5D98"
         id="stop4160" />
    </linearGradient>
    <linearGradient
       inkscape:collect="always"
       xlink:href="#id1"
       id="linearGradient4688"
       gradientUnits="userSpaceOnUse"
       x1="158.80299"
       y1="32.5331"
       x2="158.80299"
       y2="122.172" />
    <linearGradient
       id="id1"
       gradientUnits="userSpaceOnUse"
       x1="158.80299"
       y1="32.5331"
       x2="158.80299"
       y2="122.172">
      <stop
         offset="0"
         style="stop-color:#FF8F1C"
         id="stop4163" />
      <stop
         offset="0.85098"
         style="stop-color:#E57E18"
         id="stop4165" />
      <stop
         offset="1"
         style="stop-color:#CB6C13"
         id="stop4167" />
    </linearGradient>
    <linearGradient
       inkscape:collect="always"
       xlink:href="#id0"
       id="linearGradient1622"
       gradientUnits="userSpaceOnUse"
       x1="228.908"
       y1="95.584999"
       x2="228.908"
       y2="185.224" />
    <linearGradient
       inkscape:collect="always"
       xlink:href="#id0"
       id="linearGradient1624"
       gradientUnits="userSpaceOnUse"
       x1="228.908"
       y1="95.584999"
       x2="228.908"
       y2="185.224" />
    <linearGradient
       inkscape:collect="always"
       xlink:href="#id0"
       id="linearGradient1626"
       gradientUnits="userSpaceOnUse"
       x1="228.908"
       y1="95.584999"
       x2="228.908"
       y2="185.224" />
  </defs>
  <sodipodi:namedview
     id="base"
     pagecolor="#ffffff"
     bordercolor="#666666"
     borderopacity="1.0"
     inkscape:pageopacity="0.0"
     inkscape:pageshadow="2"
     inkscape:zoom="0.7"
     inkscape:cx="290.39342"
     inkscape:cy="269.78551"
     inkscape:document-units="mm"
     inkscape:current-layer="layer1"
     showgrid="false"
     units="px"
     inkscape:window-width="1366"
     inkscape:window-height="703"
     inkscape:window-x="0"
     inkscape:window-y="0"
     inkscape:window-maximized="1" />
  <metadata
     id="metadata854">
    <rdf:RDF>
      <cc:Work
         rdf:about="">
        <dc:format>image/svg+xml</dc:format>
        <dc:type
           rdf:resource="http://purl.org/dc/dcmitype/StillImage" />
        <dc:title></dc:title>
      </cc:Work>
    </rdf:RDF>
  </metadata>
  <g
     inkscape:label="Layer 1"
     inkscape:groupmode="layer"
     id="layer1"
     transform="translate(0,-161.53332)">
    <g
       style="fill-rule:evenodd"
       id="_205724088"
       transform="matrix(0.35811705,0,0,0.38136281,1.6579831,176.19287)">
      <polygon
         style="fill:url(#linearGradient1622);stroke:#2c5d98;stroke-width:2.37204003"
         points="190.093,154.532 181.937,132.122 197.266,113.853 212.595,95.585 236.081,99.7261 259.566,103.867 267.723,126.277 275.879,148.687 260.55,166.955 245.221,185.224 221.735,181.083 198.25,176.941 "
         class="fil0 str0"
         id="_205726200" />
      <polygon
         style="fill:url(#linearGradient1624);stroke:#2c5d98;stroke-width:2.37204003"
         points="101.357,182.42 93.201,160.01 108.53,141.742 123.859,123.473 147.345,127.614 170.831,131.756 178.987,154.165 187.144,176.575 171.814,194.844 156.485,213.112 133,208.971 109.514,204.83 "
         class="fil0 str0"
         id="_205726032" />
      <polygon
         style="fill:url(#linearGradient1626);stroke:#2c5d98;stroke-width:2.37204003"
         points="30.3688,121.573 22.2123,99.163 37.5414,80.8945 52.8706,62.626 76.3562,66.7671 99.8419,70.9082 107.998,93.318 116.155,115.728 100.826,133.996 85.4966,152.265 62.011,148.124 38.5252,143.982 "
         class="fil0 str0"
         id="_205725864" />
      <polygon
         style="fill:url(#linearGradient1238);stroke:#2c5d98;stroke-width:2.37204003"
         points="261.082,212.844 252.925,190.434 268.255,172.166 283.584,153.897 307.069,158.038 330.555,162.179 338.711,184.589 346.868,206.999 331.539,225.267 316.21,243.536 292.724,239.395 269.238,235.254 "
         class="fil0 str0"
         id="_205725696" />
      <polygon
         style="fill:none;stroke:#2c5d98;stroke-width:3.33712006"
         points="169.778,245.835 161.622,223.425 176.951,205.156 192.28,186.888 215.766,191.029 239.251,195.17 247.408,217.58 255.564,239.99 240.235,258.258 224.906,276.527 201.42,272.386 177.935,268.244 "
         class="fil1 str1"
         id="_205725528" />
      <polygon
         style="fill:none;stroke:#2c5d98;stroke-width:3.33712006"
         points="10.0539,212.876 1.89739,190.466 17.2265,172.197 32.5557,153.929 56.0413,158.07 79.527,162.211 87.6834,184.621 95.8399,207.031 80.5108,225.299 65.1817,243.568 41.696,239.427 18.2103,235.285 "
         class="fil1 str1"
         id="_205725360" />
      <polygon
         style="fill:none;stroke:#2c5d98;stroke-width:3.33712006"
         points="210.343,60.7572 202.187,38.3476 217.516,20.079 232.845,1.81049 256.331,5.95161 279.816,10.0927 287.973,32.5025 296.129,54.9121 280.8,73.1807 265.471,91.4492 241.985,87.3081 218.5,83.1669 "
         class="fil1 str1"
         id="_205725192" />
      <polygon
         style="fill:none;stroke:#2c5d98;stroke-width:3.33712006"
         points="281.332,121.605 273.175,99.195 288.505,80.9264 303.834,62.6579 327.319,66.799 350.805,70.9401 358.962,93.3499 367.118,115.76 351.789,134.028 336.46,152.297 312.974,148.156 289.488,144.014 "
         class="fil1 str1"
         id="_205725024" />
      <polygon
         style="fill:url(#linearGradient4688);stroke:#f58634;stroke-width:2.37204003"
         points="119.988,91.4798 111.831,69.0702 127.161,50.8017 142.49,32.5331 165.975,36.6743 189.461,40.8154 197.617,63.2251 205.774,85.6348 190.445,103.903 175.116,122.172 151.63,118.031 128.144,113.89 "
         class="fil2 str2"
         id="_205724856" />
      <path
         style="fill:#fefefe;fill-rule:nonzero"
         inkscape:connector-curvature="0"
         d="m 177.553,60.3614 c 0,0.750445 -0.0268,1.40716 -0.0938,1.95655 -0.0669,0.549491 -0.16078,0.991666 -0.28139,1.31333 -0.12061,0.335051 -0.25461,0.562881 -0.42888,0.696882 -0.17418,0.134001 -0.37522,0.187659 -0.60306,0.187659 -0.34844,0 -0.89783,-0.227831 -1.64828,-0.696882 -0.76393,-0.482442 -1.76899,-0.991761 -3.02866,-1.54116 -1.25976,-0.549491 -2.76065,-1.05871 -4.48947,-1.52777 -1.74211,-0.469052 -3.76571,-0.710273 -6.0707,-0.710273 -2.46587,0 -4.69042,0.42888 -6.67376,1.28654 -1.99682,0.844274 -3.69876,2.05038 -5.10591,3.60493 -1.40706,1.55455 -2.50604,3.43066 -3.25649,5.61514 -0.76383,2.18438 -1.13906,4.59659 -1.13906,7.25003 0,2.89465 0.38862,5.45426 1.15245,7.66542 0.77733,2.21126 1.84943,4.07398 3.2431,5.56148 1.39376,1.48759 3.05553,2.61326 5.01208,3.3771 1.94316,0.763931 4.10076,1.13915 6.44593,1.13915 1.15254,0 2.2916,-0.134001 3.41736,-0.388613 1.12567,-0.268097 2.17099,-0.656711 3.14927,-1.17932 v -11.7797 h -9.62207 c -0.46905,0 -0.84427,-0.294784 -1.09889,-0.884446 -0.268,-0.589662 -0.38861,-1.59472 -0.38861,-3.00187 0,-0.737054 0.0268,-1.3535 0.0937,-1.84933 0.067,-0.495928 0.16087,-0.897932 0.29487,-1.19272 0.13401,-0.308269 0.2814,-0.522709 0.46906,-0.670101 0.18756,-0.147392 0.38861,-0.21444 0.62983,-0.21444 h 17.1535 c 0.41549,0 0.79071,0.06705 1.12576,0.21444 0.32157,0.147392 0.61644,0.361832 0.85767,0.643225 0.25461,0.294879 0.44217,0.64332 0.57617,1.04532 0.12061,0.402004 0.18766,0.871056 0.18766,1.39376 v 20.2223 c 0,0.777321 -0.134,1.46081 -0.402,2.05038 -0.28149,0.589659 -0.84428,1.058709 -1.68855,1.393759 -0.85767,0.34844 -1.91638,0.69688 -3.16275,1.0721 -1.25967,0.36183 -2.5596,0.67001 -3.9131,0.93811 -1.34011,0.25461 -2.70709,0.45556 -4.07398,0.58966 -1.38028,0.134 -2.76065,0.18756 -4.15432,0.18756 -4.0472,0 -7.67891,-0.57627 -10.8952,-1.74211 -3.20283,-1.16593 -5.90992,-2.854479 -8.13447,-5.065649 -2.22465,-2.21126 -3.92659,-4.90486 -5.10591,-8.08091 -1.17923,-3.18953 -1.76889,-6.79446 -1.76889,-10.8282 0,-4.15442 0.62983,-7.89335 1.8895,-11.2034 1.24637,-3.31014 3.02875,-6.12436 5.33374,-8.44274 2.30499,-2.31838 5.07904,-4.08737 8.33552,-5.32026 3.26988,-1.23298 6.90159,-1.83604 10.8951,-1.83604 2.21126,0 4.20798,0.147487 6.01714,0.442271 1.79577,0.308269 3.3771,0.670101 4.7306,1.09889 1.3402,0.42888 2.46587,0.897932 3.35032,1.39376 0.89793,0.495833 1.51438,0.938104 1.86282,1.29994 0.36183,0.361832 0.61644,0.884446 0.77722,1.55445 0.1474,0.656711 0.22784,1.64838 0.22784,2.9617 z"
         class="fil3"
         id="_205724712" />
      <path
         style="fill:#fefefe;fill-rule:nonzero"
         inkscape:connector-curvature="0"
         d="m 86.0637,118.111 c 0,2.66682 -0.495833,5.01199 -1.48759,7.03559 -0.991666,2.01021 -2.34516,3.69876 -4.0471,5.03886 -1.70194,1.3535 -3.68537,2.35855 -5.96358,3.04205 -2.27821,0.68349 -4.7172,1.01845 -7.30359,1.01845 -1.7556,0 -3.39049,-0.134 -4.89147,-0.42879 -1.50089,-0.28139 -2.82761,-0.62983 -3.98015,-1.03193 -1.15245,-0.41539 -2.11733,-0.83088 -2.89465,-1.28645 -0.763836,-0.44227 -1.32672,-0.83088 -1.66177,-1.17932 -0.348441,-0.33505 -0.589662,-0.83088 -0.723664,-1.46072 -0.147392,-0.64332 -0.214345,-1.56793 -0.214345,-2.77403 0,-0.8175 0.02678,-1.48759 0.06695,-2.037 0.05366,-0.54949 0.147392,-1.00506 0.254612,-1.3401 0.120611,-0.33506 0.281488,-0.57628 0.482442,-0.72367 0.187659,-0.14739 0.415489,-0.21444 0.683492,-0.21444 0.361832,0 0.884446,0.21444 1.55455,0.64323 0.656616,0.42888 1.51428,0.91132 2.57299,1.43394 1.04532,0.52271 2.2916,1.00515 3.73893,1.43394 1.46072,0.42888 3.13588,0.64322 5.05226,0.64322 1.25976,0 2.38543,-0.14739 3.3771,-0.44217 0.991666,-0.30827 1.83594,-0.73706 2.53282,-1.28654 0.683492,-0.5494 1.2195,-1.2195 1.58133,-2.03699 0.375222,-0.8175 0.549491,-1.71533 0.549491,-2.707 0,-1.15254 -0.308269,-2.14421 -0.938104,-2.9617 -0.629834,-0.83089 -1.44733,-1.56794 -2.45238,-2.19777 -1.00515,-0.64323 -2.1576,-1.24628 -3.43075,-1.80916 -1.28645,-0.56289 -2.61317,-1.16593 -3.96676,-1.78238 -1.36689,-0.62984 -2.69361,-1.3535 -3.96676,-2.14421 -1.28645,-0.80401 -2.4256,-1.7555 -3.44405,-2.86778 -1.00515,-1.11237 -1.82255,-2.4257 -2.45248,-3.93998 -0.629834,-1.52777 -0.938009,-3.336935 -0.938009,-5.467655 0,-2.4257 0.455566,-4.56981 1.3535,-6.41924 0.897837,-1.83594 2.11733,-3.3771 3.65849,-4.5832 1.52777,-1.2195 3.33693,-2.13072 5.41409,-2.73378 2.07716,-0.603053 4.28842,-0.897932 6.62019,-0.897932 1.19272,0 2.39882,0.08044 3.60493,0.268002 1.20611,0.187659 2.33177,0.42888 3.3771,0.75054 1.04532,0.308174 1.96994,0.670006 2.78743,1.05862 0.817493,0.388708 1.3535,0.723664 1.60811,0.978276 0.268097,0.268097 0.442271,0.482442 0.5361,0.670101 0.09383,0.187659 0.160782,0.42888 0.227831,0.723664 0.06695,0.308269 0.120611,0.683492 0.147392,1.13906 0.01339,0.455661 0.02678,1.03193 0.02678,1.71542 0,0.750445 -0.01339,1.39367 -0.05356,1.91638 -0.04027,0.522614 -0.10722,0.951399 -0.201049,1.29984 -0.08044,0.335051 -0.21444,0.589662 -0.388613,0.737054 -0.174268,0.160877 -0.402004,0.241221 -0.683492,0.241221 -0.294784,0 -0.750445,-0.187564 -1.38028,-0.549396 -0.629834,-0.361832 -1.39376,-0.763836 -2.31838,-1.19272 -0.911322,-0.442271 -1.97004,-0.830884 -3.17614,-1.17932 -1.20611,-0.361832 -2.51943,-0.536005 -3.96676,-0.536005 -1.12567,0 -2.10394,0.134001 -2.93483,0.415394 -0.844274,0.268002 -1.54116,0.656711 -2.10394,1.13915 -0.562881,0.482442 -0.978371,1.05862 -1.25976,1.74211 -0.268002,0.683492 -0.415394,1.40716 -0.415394,2.1576 0,1.12567 0.308174,2.10404 0.924618,2.93483 0.616444,0.817493 1.44733,1.55455 2.47926,2.197866 1.03184,0.64323 2.19777,1.24628 3.5111,1.79577 1.31333,0.56279 2.64004,1.16584 4.00693,1.79567 1.3535,0.62993 2.6937,1.3402 4.00693,2.13082 1.29994,0.80411 2.46587,1.7556 3.48432,2.86787 1.01854,1.11228 1.84943,2.4256 2.47926,3.92649 0.629834,1.51438 0.938104,3.28336 0.938104,5.32035 z"
         class="fil3"
         id="_205724568" />
      <path
         style="fill:#fefefe;fill-rule:nonzero"
         inkscape:connector-curvature="0"
         d="m 164.043,168.728 c 0,4.20798 -0.52261,7.97379 -1.56794,11.2972 -1.04532,3.32353 -2.59987,6.15114 -4.67703,8.46952 -2.06377,2.30509 -4.62338,4.07398 -7.66542,5.29348 -3.05553,1.2195 -6.58002,1.82255 -10.587,1.82255 -3.95337,0 -7.39751,-0.50922 -10.3457,-1.54106 -2.94822,-1.03193 -5.4007,-2.61326 -7.35725,-4.73069 -1.96994,-2.13072 -3.44415,-4.82442 -4.42242,-8.0943 -0.97828,-3.26988 -1.47411,-7.14281 -1.47411,-11.6188 0,-4.11415 0.52261,-7.81291 1.58133,-11.0962 1.04532,-3.28327 2.59987,-6.0708 4.66364,-8.37579 2.06377,-2.30499 4.62338,-4.07388 7.67891,-5.30687 3.04205,-1.23289 6.59332,-1.83594 10.6137,-1.83594 3.85954,0 7.25003,0.50922 10.1982,1.52777 2.93492,1.01845 5.4007,2.58639 7.37064,4.70381 1.98343,2.13072 3.47093,4.79764 4.47598,8.04074 1.01854,3.22961 1.51438,7.03559 1.51438,11.4445 z m -10.8282,0.54949 c 0,-2.68021 -0.21444,-5.10582 -0.62983,-7.2902 -0.41549,-2.18448 -1.13915,-4.06059 -2.14421,-5.61514 -1.00506,-1.55455 -2.34516,-2.76065 -4.02032,-3.60493 -1.67516,-0.85766 -3.76571,-1.28654 -6.28514,-1.28654 -2.53282,0 -4.66364,0.48244 -6.36558,1.43394 -1.68855,0.96489 -3.06892,2.23804 -4.11415,3.83276 -1.04532,1.59472 -1.78238,3.45754 -2.22465,5.58826 -0.42879,2.14421 -0.64323,4.39564 -0.64323,6.78107 0,2.77404 0.21444,5.2666 0.62984,7.47786 0.41548,2.21116 1.12576,4.10076 2.11743,5.6687 0.99166,1.56794 2.33177,2.77404 4.00693,3.59154 1.67516,0.83079 3.7791,1.24628 6.32531,1.24628 2.53282,0 4.65025,-0.48244 6.35219,-1.42055 1.70194,-0.9381 3.08231,-2.22455 4.12754,-3.84615 1.04532,-1.6215 1.78238,-3.5111 2.21126,-5.6687 0.44217,-2.1576 0.65661,-4.46259 0.65661,-6.8882 z"
         class="fil3"
         id="_205724424" />
      <path
         style="fill:#fefefe;fill-rule:nonzero"
         inkscape:connector-curvature="0"
         d="m 250.524,164.345 c 0,0.29478 -0.0537,0.536 -0.16088,0.73705 -0.10722,0.18766 -0.34844,0.34844 -0.75044,0.48245 -0.38862,0.134 -0.96489,0.22783 -1.72872,0.28139 -0.75045,0.0537 -1.78238,0.0804 -3.0957,0.0804 -1.09889,0 -1.98333,-0.0268 -2.62665,-0.0804 -0.65662,-0.0536 -1.17932,-0.16078 -1.55455,-0.29479 -0.37522,-0.14739 -0.64323,-0.33505 -0.80401,-0.54949 -0.16088,-0.22783 -0.29488,-0.49583 -0.4021,-0.804 l -4.54294,-11.3508 c -0.54949,-1.28654 -1.0855,-2.4257 -1.6082,-3.41736 -0.536,-0.99167 -1.11228,-1.82255 -1.7555,-2.49265 -0.64332,-0.67001 -1.38037,-1.16584 -2.21126,-1.51428 -0.84427,-0.33505 -1.80916,-0.50923 -2.90805,-0.50923 h -3.21622 v 19.3647 c 0,0.25462 -0.0938,0.49584 -0.25461,0.69688 -0.17427,0.21444 -0.45566,0.38862 -0.84427,0.50923 -0.4021,0.134 -0.92472,0.24122 -1.58142,0.32166 -0.64323,0.0804 -1.4875,0.12061 -2.50595,0.12061 -0.99177,0 -1.82264,-0.0402 -2.49265,-0.12061 -0.67011,-0.0804 -1.20611,-0.18766 -1.59472,-0.32166 -0.38871,-0.12061 -0.67011,-0.29479 -0.8175,-0.50923 -0.16078,-0.20104 -0.24122,-0.44227 -0.24122,-0.69688 v -46.1402 c 0,-1.15254 0.29479,-1.98343 0.88445,-2.49265 0.58966,-0.50922 1.31333,-0.76383 2.18438,-0.76383 h 13.1466 c 1.3402,0 2.43909,0.0268 3.29675,0.0803 0.87105,0.0537 1.64828,0.12061 2.35855,0.18766 2.03699,0.29478 3.87293,0.79062 5.52131,1.50089 1.63499,0.71027 3.01527,1.6216 4.15442,2.76065 1.13906,1.13915 2.01011,2.49265 2.61317,4.0472 0.60305,1.55455 0.89793,3.35032 0.89793,5.36043 0,1.70194 -0.21444,3.25649 -0.64332,4.65025 -0.42879,1.40706 -1.0721,2.65343 -1.90289,3.75232 -0.84427,1.09889 -1.87621,2.05038 -3.10909,2.86787 -1.2195,0.80401 -2.62665,1.46072 -4.19459,1.95655 0.76384,0.37522 1.47411,0.81749 2.14421,1.34011 0.65662,0.52261 1.28645,1.15254 1.87611,1.90299 0.58966,0.75044 1.15254,1.59472 1.67516,2.54621 0.52271,0.96488 1.03193,2.03699 1.52777,3.2431 l 4.27493,10.0107 c 0.4021,0.99167 0.65671,1.72872 0.79071,2.18438 0.134,0.45566 0.20105,0.81749 0.20105,1.0721 z m -13.3208,-34.4679 c 0,-1.67516 -0.37522,-3.08231 -1.13906,-4.23476 -0.75054,-1.15254 -1.99682,-1.97004 -3.72554,-2.43899 -0.52271,-0.1341 -1.11228,-0.24122 -1.78238,-0.30827 -0.6701,-0.0804 -1.59472,-0.12061 -2.77404,-0.12061 h -4.62338 v 14.4063 h 5.25321 c 1.47411,0 2.74726,-0.17427 3.84615,-0.5361 1.09889,-0.34844 2.0236,-0.84427 2.74726,-1.4875 0.73705,-0.64332 1.28654,-1.40716 1.64838,-2.2916 0.37522,-0.89793 0.5494,-1.8896 0.5494,-2.98848 z"
         class="fil3"
         id="_205724280" />
      <path
         style="fill:#fefefe;fill-rule:nonzero"
         inkscape:connector-curvature="0"
         d="m 319.57,177.429 c 0,0.76384 -0.0402,1.40706 -0.10722,1.94316 -0.067,0.536 -0.16078,0.97828 -0.29478,1.29994 -0.13401,0.32156 -0.29479,0.57618 -0.48245,0.72366 -0.20104,0.16079 -0.41539,0.24122 -0.65661,0.24122 h -12.7178 v 40.95401 c 0,0.25461 -0.0804,0.49583 -0.25461,0.69688 -0.17418,0.21444 -0.45567,0.38861 -0.84428,0.50922 -0.38861,0.134 -0.92471,0.24122 -1.59472,0.32166 -0.65671,0.0804 -1.48759,0.12061 -2.49265,0.12061 -0.99166,0 -1.82255,-0.0402 -2.49265,-0.12061 -0.65661,-0.0804 -1.19262,-0.18766 -1.58133,-0.32166 -0.402,-0.12061 -0.6834,-0.29478 -0.84427,-0.50922 -0.17417,-0.20105 -0.25461,-0.44227 -0.25461,-0.69688 v -40.95401 h -12.7311 c -0.25471,0 -0.48245,-0.0804 -0.65671,-0.24122 -0.18757,-0.14748 -0.34845,-0.40209 -0.48245,-0.72366 -0.12061,-0.32166 -0.22783,-0.76393 -0.29478,-1.29994 -0.0537,-0.5361 -0.0938,-1.17932 -0.0938,-1.94316 0,-0.77732 0.0402,-1.44733 0.0938,-1.99682 0.0669,-0.5494 0.17417,-0.99167 0.29478,-1.31333 0.134,-0.33505 0.29488,-0.56279 0.48245,-0.71027 0.17426,-0.1474 0.402,-0.21435 0.65671,-0.21435 h 35.808 c 0.24122,0 0.45556,0.067 0.65661,0.21435 0.18766,0.14748 0.34844,0.37522 0.48244,0.71027 0.134,0.32166 0.22783,0.76393 0.29479,1.31333 0.067,0.54949 0.10722,1.2195 0.10722,1.99682 z"
         class="fil3"
         id="_205724184" />
    </g>
  </g>
</svg>
